<?xml version="1.0" standalone="no"?>
<!DOCTYPE svg PUBLIC "-//W3C//DTD SVG 1.1//EN" "http://www.w3.org/Graphics/SVG/1.1/DTD/svg11.dtd" >
<svg xmlns="http://www.w3.org/2000/svg" xmlns:xlink="http://www.w3.org/1999/xlink" version="1.1">
<metadata>
Created by FontForge 20201107 at Fri Jan 18 01:43:54 2019
 By Unknown
Typeface by Darrell Flood. (c) 2019. All Rights Reserved
</metadata>
<defs>
<font id="Robotronica" horiz-adv-x="1100" >
  <font-face 
    font-family="Robotronica"
    font-weight="400"
    font-stretch="normal"
    units-per-em="2048"
    panose-1="2 0 5 0 0 0 0 0 0 0"
    ascent="1638"
    descent="-410"
    x-height="1300"
    cap-height="1300"
    bbox="50 -300 1650 1600"
    underline-thickness="150"
    underline-position="-292"
    unicode-range="U+0020-20AC"
  />
<missing-glyph horiz-adv-x="1500" 
 />
    <glyph glyph-name=".notdef" horiz-adv-x="1500" 
 />
    <glyph glyph-name=".null" horiz-adv-x="0" 
 />
    <glyph glyph-name=".null" horiz-adv-x="0" 
 />
    <glyph glyph-name="nonmarkingreturn" horiz-adv-x="508" 
 />
    <glyph glyph-name="space" unicode=" " horiz-adv-x="508" 
 />
    <glyph glyph-name="space" unicode="&#xa0;" horiz-adv-x="508" 
 />
    <glyph glyph-name="exclam" unicode="!" horiz-adv-x="500" 
d="M50 400v900h400v-900h-400zM450 300v-300h-400v300h400z" />
    <glyph glyph-name="quotedbl" unicode="&#x22;" horiz-adv-x="1000" 
d="M450 1100h-400v400h400v-400zM950 1100h-400v400h400v-400z" />
    <glyph glyph-name="numbersign" unicode="#" horiz-adv-x="1300" 
d="M150 600v200h-100v300h100v300h400v-300h200v300h400v-300h100v-300h-100v-200h100v-300h-100v-300h-400v300h-200v-300h-400v300h-100v300h100zM550 800v-200h200v200h-200z" />
    <glyph glyph-name="dollar" unicode="$" 
d="M450 1300v200h200v-200h400v-400h-400v100h-200v-200h600v-600l-200 -200h-200v-200h-200v200h-400v400h400v-100h200v200h-600v600l200 200h200z" />
    <glyph glyph-name="percent" unicode="%" horiz-adv-x="1200" 
d="M450 1000h-400v300h400v-300zM1150 0h-400v300h400v-300zM750 1300h400l-700 -1300h-400z" />
    <glyph glyph-name="ampersand" unicode="&#x26;" horiz-adv-x="1200" 
d="M450 1000v-200h200v200h-200zM450 300h200v200h-200v-200zM650 0h-600v500l150 150l-150 150v500h1000v-500l-150 -150l150 -150v-200h100v-300h-100v-100h-400v100z" />
    <glyph glyph-name="quotesingle" unicode="'" horiz-adv-x="500" 
d="M450 900h-400v600h400v-600z" />
    <glyph glyph-name="parenleft" unicode="(" horiz-adv-x="600" 
d="M550 1600v-300h-100v-1100h100v-300h-500v1700h500z" />
    <glyph glyph-name="parenright" unicode=")" horiz-adv-x="600" 
d="M50 1600h500v-1700h-500v300h100v1100h-100v300z" />
    <glyph glyph-name="asterisk" unicode="*" horiz-adv-x="800" 
d="M450 1168l166 162l69 -71l-163 -159h228v-100h-228l163 -159l-69 -71l-166 162v-232h-100v232l-166 -162l-69 71l163 159h-228v100h228l-163 159l69 71l166 -162v232h100v-232z" />
    <glyph glyph-name="plus" unicode="+" horiz-adv-x="900" 
d="M650 800h200v-300h-200v-200h-400v200h-200v300h200v200h400v-200z" />
    <glyph glyph-name="comma" unicode="," horiz-adv-x="500" 
d="M450 -300h-400v600h400v-600z" />
    <glyph glyph-name="hyphen" unicode="-" horiz-adv-x="800" 
d="M750 500h-700v300h700v-300z" />
    <glyph glyph-name="hyphen" unicode="&#xad;" horiz-adv-x="800" 
d="M750 500h-700v300h700v-300z" />
    <glyph glyph-name="period" unicode="." horiz-adv-x="500" 
d="M450 0h-400v300h400v-300z" />
    <glyph glyph-name="slash" unicode="/" horiz-adv-x="1200" 
d="M750 1300h400l-700 -1300h-400z" />
    <glyph glyph-name="zero" unicode="0" 
d="M450 300h200v700h-200v-700zM50 0v1300h1000v-1300h-1000z" />
    <glyph glyph-name="one" unicode="1" horiz-adv-x="500" 
d="M450 1300v-1300h-400v1300h400z" />
    <glyph glyph-name="two" unicode="2" 
d="M1050 0h-1000v800h600v200h-200v-100h-400v400h800l200 -200v-600h-600v-200h200v100h400v-400z" />
    <glyph glyph-name="three" unicode="3" 
d="M650 500h-600v300h600v200h-600v300h1000v-1300h-1000v300h600v200z" />
    <glyph glyph-name="four" unicode="4" 
d="M50 500v800h400v-500h200v500h400v-1300h-400v500h-600z" />
    <glyph glyph-name="five" unicode="5" 
d="M1050 1300v-300h-600v-200h600v-600l-200 -200h-800v400h400v-100h200v200h-600v800h1000z" />
    <glyph glyph-name="six" unicode="6" 
d="M50 0v1300h1000v-300h-600v-200h600v-600l-200 -200h-800zM450 300h200v200h-200v-200z" />
    <glyph glyph-name="seven" unicode="7" 
d="M1050 1300v-1300h-400v1000h-200v-200h-400v500h1000z" />
    <glyph glyph-name="eight" unicode="8" 
d="M450 1000v-200h200v200h-200zM50 0v500l150 150l-150 150v500h1000v-500l-150 -150l150 -150v-500h-1000zM450 300h200v200h-200v-200z" />
    <glyph glyph-name="nine" unicode="9" 
d="M1050 1100v-1100h-1000v300h600v200h-600v800h800zM650 1000h-200v-200h200v200z" />
    <glyph glyph-name="colon" unicode=":" horiz-adv-x="500" 
d="M450 0h-400v300h400v-300zM450 500h-400v300h400v-300z" />
    <glyph glyph-name="semicolon" unicode=";" horiz-adv-x="500" 
d="M450 -300h-400v600h400v-600zM450 500h-400v300h400v-300z" />
    <glyph glyph-name="semicolon" unicode="&#x37e;" horiz-adv-x="500" 
d="M450 -300h-400v600h400v-600zM450 500h-400v300h400v-300z" />
    <glyph glyph-name="less" unicode="&#x3c;" horiz-adv-x="700" 
d="M50 600l400 400l200 -200l-200 -200l200 -200l-200 -200z" />
    <glyph glyph-name="equal" unicode="=" horiz-adv-x="800" 
d="M750 300h-700v300h700v-300zM750 700h-700v300h700v-300z" />
    <glyph glyph-name="greater" unicode="&#x3e;" horiz-adv-x="700" 
d="M250 200l-200 200l200 200l-200 200l200 200l400 -400z" />
    <glyph glyph-name="question" unicode="?" 
d="M750 500v-100h-400v400h300v200h-200v-100h-400v400h1000v-800h-300zM750 300v-300h-400v300h400z" />
    <glyph glyph-name="at" unicode="@" 
d="M750 300v100h300v-400h-1000v1300h1000v-800h-500v300h200v200h-400v-700h400z" />
    <glyph glyph-name="A" unicode="A" 
d="M50 1300h1000v-1100h-400v300h-200v-300h-400v1100zM450 1000v-200h200v200h-200zM1050 100v-300h-1000v300h1000z" />
    <glyph glyph-name="B" unicode="B" 
d="M450 1000v-200h200v200h-200zM50 0v1300h1000v-500l-150 -150l150 -150v-500h-1000zM450 300h200v200h-200v-200z" />
    <glyph glyph-name="C" unicode="C" 
d="M650 1000h-200v-700h200v200h400v-500h-800l-200 200v900l200 200h800v-500h-400v200z" />
    <glyph glyph-name="D" unicode="D" 
d="M450 300h200v700h-200v-700zM50 0v1300h800l200 -200v-900l-200 -200h-800z" />
    <glyph glyph-name="E" unicode="E" 
d="M450 500h600v-300h-1000v1100h1000v-300h-600v-100h600v-300h-600v-100zM1050 100v-300h-1000v300h1000z" />
    <glyph glyph-name="F" unicode="F" 
d="M1050 1300v-300h-600v-200h600v-300h-600v-500h-400v1300h1000z" />
    <glyph glyph-name="G" unicode="G" 
d="M1050 1300v-300h-600v-700h200v200h-100v300h500v-800h-800l-200 200v900l200 200h800z" />
    <glyph glyph-name="H" unicode="H" 
d="M450 500v-500h-400v1300h400v-500h200v500h400v-1300h-400v500h-200z" />
    <glyph glyph-name="I" unicode="I" horiz-adv-x="500" 
d="M450 1300v-1100h-400v1100h400zM450 100v-300h-400v300h400z" />
    <glyph glyph-name="J" unicode="J" 
d="M50 0v500h400v-200h200v1000h400v-1100l-200 -200h-800z" />
    <glyph glyph-name="K" unicode="K" 
d="M450 500v-500h-400v1300h400v-500h200v500h400v-500l-150 -150l150 -150v-500h-400v500h-200z" />
    <glyph glyph-name="L" unicode="L" 
d="M50 0v1300h400v-1000h600v-300h-1000z" />
    <glyph glyph-name="M" unicode="M" horiz-adv-x="1700" 
d="M450 1000v-1000h-400v1300h1400l200 -200v-1100h-400v1000h-200v-1000h-400v1000h-200z" />
    <glyph glyph-name="N" unicode="N" 
d="M850 1300l200 -200v-1100h-400v1000h-200v-1000h-400v1300h800z" />
    <glyph glyph-name="O" unicode="O" 
d="M450 500h200v500h-200v-500zM50 400v700l200 200h600l200 -200v-700l-200 -200h-600zM1050 100v-300h-1000v300h1000z" />
    <glyph glyph-name="P" unicode="P" 
d="M450 1000v-200h200v200h-200zM450 500v-500h-400v1300h1000v-800h-600z" />
    <glyph glyph-name="Q" unicode="Q" 
d="M450 300h200v700h-200v-700zM350 0h-100l-200 200v900l200 200h600l200 -200v-900l-200 -200h-100l200 -200h-400z" />
    <glyph glyph-name="R" unicode="R" 
d="M450 1000v-200h200v200h-200zM650 500h-200v-500h-400v1300h1000v-500l-150 -150l150 -150v-500h-400v500z" />
    <glyph glyph-name="S" unicode="S" 
d="M650 1000h-200v-200h600v-600l-200 -200h-800v400h400v-100h200v200h-600v600l200 200h800v-400h-400v100z" />
    <glyph glyph-name="T" unicode="T" 
d="M750 1000v-1000h-400v1000h-300v300h1000v-300h-300z" />
    <glyph glyph-name="U" unicode="U" 
d="M250 200l-200 200v900h400v-800h200v800h400v-1100h-800zM1050 100v-300h-1000v300h1000z" />
    <glyph glyph-name="V" unicode="V" 
d="M50 400v900h400v-800l100 -100l100 100v800h400v-900l-500 -500z" />
    <glyph glyph-name="W" unicode="W" horiz-adv-x="1700" 
d="M650 300v1000h400v-1000h200v1000h400v-1300h-1400l-200 200v1100h400v-1000h200z" />
    <glyph glyph-name="X" unicode="X" 
d="M450 500v-500h-400v500l150 150l-150 150v500h400v-500h200v500h400v-500l-150 -150l150 -150v-500h-400v500h-200z" />
    <glyph glyph-name="Y" unicode="Y" 
d="M350 500h-300v800h400v-500h200v500h400v-800h-300v-500h-400v500z" />
    <glyph glyph-name="Z" unicode="Z" 
d="M50 1300h1000v-600l-600 -300v-100h200v100h400v-400h-1000v600l600 300v100h-200v-100h-400v400z" />
    <glyph glyph-name="bracketleft" unicode="[" horiz-adv-x="600" 
d="M550 1600v-300h-100v-1100h100v-300h-500v1700h500z" />
    <glyph glyph-name="backslash" unicode="\" horiz-adv-x="1200" 
d="M1150 0h-400l-700 1300h400z" />
    <glyph glyph-name="bracketright" unicode="]" horiz-adv-x="600" 
d="M50 1600h500v-1700h-500v300h100v1100h-100v300z" />
    <glyph glyph-name="asciicircum" unicode="^" horiz-adv-x="500" 
d="M450 900h-400v600h400v-600z" />
    <glyph glyph-name="underscore" unicode="_" 
d="M1050 -300h-1000v300h1000v-300z" />
    <glyph glyph-name="grave" unicode="`" horiz-adv-x="500" 
d="M450 900h-400v600h400v-600z" />
    <glyph glyph-name="a" unicode="a" 
d="M50 1300h1000v-1300h-400v500h-200v-500h-400v1300zM450 1000v-200h200v200h-200z" />
    <glyph glyph-name="b" unicode="b" 
d="M450 1000v-200h200v200h-200zM50 0v1300h1000v-500l-150 -150l150 -150v-500h-1000zM450 300h200v200h-200v-200z" />
    <glyph glyph-name="c" unicode="c" 
d="M650 1000h-200v-700h200v200h400v-500h-800l-200 200v900l200 200h800v-500h-400v200z" />
    <glyph glyph-name="d" unicode="d" 
d="M450 300h200v700h-200v-700zM50 0v1300h800l200 -200v-900l-200 -200h-800z" />
    <glyph glyph-name="e" unicode="e" 
d="M450 300h600v-300h-1000v1300h1000v-300h-600v-200h600v-300h-600v-200z" />
    <glyph glyph-name="f" unicode="f" 
d="M1050 1300v-300h-600v-200h600v-300h-600v-500h-400v1300h1000z" />
    <glyph glyph-name="g" unicode="g" 
d="M1050 1300v-300h-600v-700h200v200h-100v300h500v-800h-800l-200 200v900l200 200h800z" />
    <glyph glyph-name="h" unicode="h" 
d="M450 500v-500h-400v1300h400v-500h200v500h400v-1300h-400v500h-200z" />
    <glyph glyph-name="i" unicode="i" horiz-adv-x="500" 
d="M450 1300v-1300h-400v1300h400z" />
    <glyph glyph-name="j" unicode="j" 
d="M50 0v500h400v-200h200v1000h400v-1100l-200 -200h-800z" />
    <glyph glyph-name="k" unicode="k" 
d="M450 500v-500h-400v1300h400v-500h200v500h400v-500l-150 -150l150 -150v-500h-400v500h-200z" />
    <glyph glyph-name="l" unicode="l" 
d="M50 0v1300h400v-1000h600v-300h-1000z" />
    <glyph glyph-name="m" unicode="m" horiz-adv-x="1700" 
d="M450 1000v-1000h-400v1300h1400l200 -200v-1100h-400v1000h-200v-1000h-400v1000h-200z" />
    <glyph glyph-name="n" unicode="n" 
d="M850 1300l200 -200v-1100h-400v1000h-200v-1000h-400v1300h800z" />
    <glyph glyph-name="o" unicode="o" 
d="M450 300h200v700h-200v-700zM50 200v900l200 200h600l200 -200v-900l-200 -200h-600z" />
    <glyph glyph-name="p" unicode="p" 
d="M450 1000v-200h200v200h-200zM450 500v-500h-400v1300h1000v-800h-600z" />
    <glyph glyph-name="q" unicode="q" 
d="M450 300h200v700h-200v-700zM350 0h-100l-200 200v900l200 200h600l200 -200v-900l-200 -200h-100l200 -200h-400z" />
    <glyph glyph-name="r" unicode="r" 
d="M450 1000v-200h200v200h-200zM650 500h-200v-500h-400v1300h1000v-500l-150 -150l150 -150v-500h-400v500z" />
    <glyph glyph-name="s" unicode="s" 
d="M650 1000h-200v-200h600v-600l-200 -200h-800v400h400v-100h200v200h-600v600l200 200h800v-400h-400v100z" />
    <glyph glyph-name="t" unicode="t" 
d="M750 1000v-1000h-400v1000h-300v300h1000v-300h-300z" />
    <glyph glyph-name="u" unicode="u" 
d="M250 0l-200 200v1100h400v-1000h200v1000h400v-1300h-800z" />
    <glyph glyph-name="v" unicode="v" 
d="M50 400v900h400v-800l100 -100l100 100v800h400v-900l-500 -500z" />
    <glyph glyph-name="w" unicode="w" horiz-adv-x="1700" 
d="M650 300v1000h400v-1000h200v1000h400v-1300h-1400l-200 200v1100h400v-1000h200z" />
    <glyph glyph-name="x" unicode="x" 
d="M450 500v-500h-400v500l150 150l-150 150v500h400v-500h200v500h400v-500l-150 -150l150 -150v-500h-400v500h-200z" />
    <glyph glyph-name="y" unicode="y" 
d="M350 500h-300v800h400v-500h200v500h400v-800h-300v-500h-400v500z" />
    <glyph glyph-name="z" unicode="z" 
d="M50 1300h1000v-600l-600 -300v-100h200v100h400v-400h-1000v600l600 300v100h-200v-100h-400v400z" />
    <glyph glyph-name="braceleft" unicode="{" horiz-adv-x="700" 
d="M150 900v700h500v-300h-100v-1100h100v-300h-500v700h-100v300h100z" />
    <glyph glyph-name="bar" unicode="|" horiz-adv-x="500" 
d="M450 0h-400v1400h400v-1400z" />
    <glyph glyph-name="braceright" unicode="}" horiz-adv-x="700" 
d="M650 900v-300h-100v-700h-500v300h100v1100h-100v300h500v-700h100z" />
    <glyph glyph-name="asciitilde" unicode="~" horiz-adv-x="800" 
d="M750 500h-700v300h700v-300z" />
    <glyph glyph-name="sterling" unicode="&#xa3;" horiz-adv-x="1200" 
d="M550 300h600v-300h-1000v500h-100v300h100v500h1000v-400h-400v100h-200v-200h200v-300h-200v-200z" />
    <glyph glyph-name="yen" unicode="&#xa5;" 
d="M350 400v100h-300v800h400v-500h200v500h400v-800h-300v-100h300v-200h-300v-200h-400v200h-300v200h300z" />
    <glyph glyph-name="Euro" unicode="&#x20ac;" horiz-adv-x="1200" 
d="M1150 600v-100h-600v-200h200v100h400v-400h-800l-200 200v300h-100v100h100v100h-100v100h100v300l200 200h800v-400h-400v100h-200v-200h600v-100h-600v-100h600z" />
    </font>
</defs>
</svg>
